<?xml version="1.0" encoding="UTF-8"?>
<svg version="1.1" xmlns="http://www.w3.org/2000/svg" width="512" height="512">
<path d="M0 0 C168.96 0 337.92 0 512 0 C512 168.96 512 337.92 512 512 C343.04 512 174.08 512 0 512 C0 343.04 0 174.08 0 0 Z " fill="#54A9FE" transform="translate(0,0)"/>
<path d="M0 0 C26.4 0 52.8 0 80 0 C83.27018229 13.08072917 86.54036458 26.16145833 89.81054688 39.2421875 C90.12882446 40.51513672 90.44710205 41.78808594 90.77502441 43.09960938 C91.44256255 45.77010732 92.10980845 48.44067708 92.7767334 51.11132812 C94.37299441 57.50202958 95.97108904 63.89222373 97.58266449 70.27908325 C98.27693796 73.03129374 98.969334 75.78397525 99.66163635 78.53668213 C100.12607448 80.38022139 100.59315794 82.22309365 101.0604248 84.06591797 C103.09405745 92.15643647 104.98833547 100.2722049 106.84765625 108.40429688 C109.55824245 120.23439719 112.4575654 132.00893745 115.45127869 143.77024841 C116.31302399 147.15609169 117.17111544 150.54284497 118.02844238 153.92980957 C119.84925817 161.12064483 121.67427754 168.31040919 123.5 175.5 C125.62124515 183.85334229 127.74059973 192.2071556 129.85545349 200.56211853 C130.68724651 203.84443489 131.52228998 207.12591161 132.35754395 210.40734863 C135.37830201 222.3153094 138.25954265 234.24658196 140.97771454 246.22753143 C142.60993572 253.40855961 144.39036096 260.53066724 146.3359375 267.6328125 C147 271 147 271 147 279 C135.12 279 123.24 279 111 279 C108.93564339 272.80693018 107.13791049 266.82750021 105.6875 260.5 C105.25294965 258.64054423 104.8180384 256.78117277 104.3828125 254.921875 C104.15754883 253.95443359 103.93228516 252.98699219 103.70019531 251.99023438 C102.50941682 246.90492929 101.28425824 241.82793268 100.0625 236.75 C99.815 235.71617187 99.5675 234.68234375 99.3125 233.6171875 C97.99856532 228.13117156 96.67013243 222.64917899 95.3203125 217.171875 C95.04695068 216.05458008 94.77358887 214.93728516 94.49194336 213.78613281 C93.9713087 211.6593521 93.44636303 209.53362013 92.91625977 207.40917969 C92.67963623 206.43883789 92.4430127 205.46849609 92.19921875 204.46875 C91.88730591 203.20708008 91.88730591 203.20708008 91.5690918 201.91992188 C90.80244021 197.98635134 90.44256365 193.98307284 90 190 C56.67 190 23.34 190 -11 190 C-11.33 193.3 -11.66 196.6 -12 200 C-12.68828653 202.97816287 -13.41602604 205.87877273 -14.25 208.8125 C-14.70655323 210.48249311 -15.16090352 212.15308972 -15.61328125 213.82421875 C-15.8448291 214.67806152 -16.07637695 215.5319043 -16.31494141 216.41162109 C-17.43179711 220.6314729 -18.43807914 224.87604745 -19.4375 229.125 C-19.74034912 230.41156494 -19.74034912 230.41156494 -20.04931641 231.72412109 C-20.47269283 233.52355337 -20.89586459 235.32303381 -21.31884766 237.12255859 C-22.05101121 240.21549037 -22.7955546 243.30525033 -23.54296875 246.39453125 C-27.20069634 261.51149784 -27.20069634 261.51149784 -30.45703125 276.71875 C-31 279 -31 279 -32 280 C-34.6662603 280.08855161 -37.30647114 280.11524673 -39.97265625 280.09765625 C-40.77029892 280.0962413 -41.56794159 280.09482635 -42.38975525 280.09336853 C-44.94737435 280.08775316 -47.50490718 280.07519812 -50.0625 280.0625 C-51.79231645 280.05748698 -53.52213426 280.05292373 -55.25195312 280.04882812 C-59.50133553 280.03777875 -63.75065312 280.02050386 -68 280 C-68.25298795 273.5446736 -67.78808362 268.14728487 -65.875 262 C-63.74185017 254.93881346 -61.99267897 247.83616397 -60.38232422 240.63964844 C-57.97376231 230.05538323 -55.43309709 219.51008052 -52.80908203 208.97753906 C-52.62131313 208.22384899 -52.43354423 207.47015891 -52.24008536 206.69362974 C-51.0427303 201.89141831 -49.84160453 197.09015512 -48.63944864 192.28914356 C-47.5551389 187.95709924 -46.4731963 183.62446353 -45.39083862 179.29193115 C-43.56530724 171.98618997 -41.73782062 164.68093999 -39.90917969 157.37597656 C-38.0687148 150.02367257 -36.23045507 142.67082206 -34.39453125 135.31738281 C-18.39299671 71.2282776 -18.39299671 71.2282776 -11.11230469 42.91210938 C-10.93521548 42.22336888 -10.75812627 41.53462839 -10.57567072 40.82501698 C-7.07284625 27.21087124 -3.5317849 13.60666605 0 0 Z " fill="#222324" transform="translate(96,107)"/>
<path d="M0 0 C20.06306131 16.89190451 29.76147537 43.55755548 32.43359375 69.0390625 C32.79248844 75.22113208 32.77521743 81.41129683 32.74609375 87.6015625 C32.74360626 88.44355194 32.74111877 89.28554138 32.73855591 90.15304565 C32.6036793 119.64828166 27.37829385 149.06208465 7.43359375 172.0390625 C6.28890625 173.5859375 6.28890625 173.5859375 5.12109375 175.1640625 C-5.39843666 186.41751364 -23.28559712 196.30859043 -38.91894531 197.16845703 C-39.71526367 197.16958496 -40.51158203 197.17071289 -41.33203125 197.171875 C-42.66814453 197.17380859 -42.66814453 197.17380859 -44.03125 197.17578125 C-44.95035156 197.17191406 -45.86945313 197.16804687 -46.81640625 197.1640625 C-47.72003906 197.16792969 -48.62367188 197.17179688 -49.5546875 197.17578125 C-58.31862567 197.16317127 -66.22827725 196.61125031 -74.44140625 193.4140625 C-75.13121582 193.14827393 -75.82102539 192.88248535 -76.53173828 192.60864258 C-97.12872617 184.36744964 -110.67467577 167.91552164 -119.56640625 148.0390625 C-132.95879552 115.40481963 -133.16522733 76.6880663 -123.56640625 43.0390625 C-123.26863281 41.97945312 -122.97085937 40.91984375 -122.6640625 39.828125 C-116.27637616 18.93792333 -102.61578436 1.19838809 -83.33984375 -9.1328125 C-55.88154523 -22.99889291 -24.06682683 -18.38896053 0 0 Z " fill="#54A9FE" transform="translate(415.56640625,151.9609375)"/>
<path d="M0 0 C11.3712419 9.88937406 19.86221082 20.65804356 27.3125 33.75 C27.88871094 34.75804687 28.46492187 35.76609375 29.05859375 36.8046875 C49.02682917 74.2516121 49.87229928 128.13426987 38.546875 168.3984375 C30.13687341 195.82934856 15.49072562 220.51604852 -8.6875 236.75 C-10.05261719 237.67232422 -10.05261719 237.67232422 -11.4453125 238.61328125 C-27.9921565 249.00691167 -50.03915331 256.13694212 -69.6875 254.75 C-69.6875 255.41 -69.6875 256.07 -69.6875 256.75 C-68.26824219 256.91435547 -68.26824219 256.91435547 -66.8203125 257.08203125 C-65.48427949 257.24138878 -64.1483507 257.40162136 -62.8125 257.5625 C-62.08780518 257.64870605 -61.36311035 257.73491211 -60.61645508 257.82373047 C-56.9033202 258.28324335 -53.23409446 258.80772401 -49.56640625 259.55078125 C-40.28060996 261.40815928 -31.22526692 262.09334707 -21.75 262.1875 C-20.62489014 262.2095752 -19.49978027 262.23165039 -18.34057617 262.25439453 C-9.608585 262.2324662 -2.029302 260.64453467 5.3125 255.75 C6.6325 255.75 7.9525 255.75 9.3125 255.75 C9.3125 263.01 9.3125 270.27 9.3125 277.75 C7.476875 278.53375 5.64125 279.3175 3.75 280.125 C2.20119141 280.78628906 2.20119141 280.78628906 0.62109375 281.4609375 C-6.54197912 284.25174511 -12.51507712 285.13801527 -20.1796875 285.125 C-21.18538788 285.12338867 -22.19108826 285.12177734 -23.2272644 285.12011719 C-34.32884724 284.94397183 -44.9594529 282.9356449 -55.8125 280.75 C-76.41665052 276.61599101 -98.22698767 272.53323103 -117.6875 282.75 C-119.0075 282.75 -120.3275 282.75 -121.6875 282.75 C-121.6875 275.49 -121.6875 268.23 -121.6875 260.75 C-113.83236545 256.66533003 -108.61617794 254.57492788 -99.6875 254.75 C-99.6875 253.76 -99.6875 252.77 -99.6875 251.75 C-100.986875 251.564375 -102.28625 251.37875 -103.625 251.1875 C-130.21429845 245.74963219 -152.07260853 228.04525016 -166.890625 205.95654297 C-172.76065897 197.00140592 -177.12914643 187.83025492 -180.6875 177.75 C-181.12835938 176.55503906 -181.56921875 175.36007812 -182.0234375 174.12890625 C-196.30683449 132.53392289 -194.08431663 78.12905744 -175.1015625 38.43359375 C-160.8303283 10.5946369 -138.35438246 -9.83984137 -108.60839844 -19.65234375 C-72.36829833 -30.92786041 -29.43353841 -24.53011641 0 0 Z M-128.078125 32.2734375 C-151.33594221 59.24934113 -155.8097673 95.83463267 -153.34375 130.1953125 C-150.93358589 158.49341185 -142.69437397 187.03705909 -120.7421875 206.33984375 C-102.25897597 220.84168465 -83.55691733 224.05669003 -60.6875 222.75 C-56.77957833 222.17755934 -53.35338507 221.19660124 -49.6875 219.75 C-48.71941406 219.39808594 -47.75132812 219.04617188 -46.75390625 218.68359375 C-26.09193377 210.70833558 -11.6677517 195.93360419 -2.50390625 176.0390625 C6.34250203 155.72092075 8.5643573 135.56172645 8.6875 113.625 C8.6955365 112.82669769 8.703573 112.02839539 8.71185303 111.2059021 C8.82398209 96.50246 7.62277403 81.65820283 2.6875 67.6875 C2.43444092 66.95764893 2.18138184 66.22779785 1.9206543 65.47583008 C-6.15200289 43.18322677 -19.59212431 25.41148842 -41.390625 15.03125 C-47.64744249 12.5996906 -54.14388228 11.18694308 -60.6875 9.75 C-61.34137695 9.5742041 -61.99525391 9.3984082 -62.66894531 9.21728516 C-86.08797829 3.79589799 -112.24386547 15.55949688 -128.078125 32.2734375 Z " fill="#222323" transform="translate(439.6875,126.25)"/>
<path d="M0 0 C1.16781006 0.00523682 2.33562012 0.01047363 3.53881836 0.01586914 C4.79887695 0.0190918 6.05893555 0.02231445 7.35717773 0.02563477 C8.6976732 0.03399136 10.03816799 0.04245632 11.37866211 0.05102539 C12.72306153 0.05603879 14.06746271 0.06060197 15.41186523 0.06469727 C18.71334151 0.07653051 22.01473014 0.09301568 25.31616211 0.11352539 C25.55214111 1.14832031 25.78812012 2.18311523 26.03125 3.24926758 C31.77918457 28.48086535 31.77918457 28.48086535 37.94116211 53.61352539 C40.73465697 64.6016473 43.28246113 75.63316255 45.74658203 86.69848633 C47.89767413 96.34017411 50.16654788 105.94846594 52.5390625 115.53808594 C52.77359131 116.49626221 53.00812012 117.45443848 53.24975586 118.44165039 C53.55997681 119.69316895 53.55997681 119.69316895 53.87646484 120.9699707 C54.31616211 123.11352539 54.31616211 123.11352539 54.31616211 126.11352539 C25.93616211 126.11352539 -2.44383789 126.11352539 -31.68383789 126.11352539 C-31.06752831 120.56673916 -30.48195415 115.64577554 -29.26586914 110.29711914 C-28.98412842 109.0508374 -28.7023877 107.80455566 -28.41210938 106.52050781 C-28.107133 105.19728226 -27.80186912 103.87412294 -27.49633789 102.55102539 C-27.17987812 101.16474433 -26.8635551 99.77843205 -26.54736328 98.39208984 C-24.43916245 89.1914466 -22.20085112 80.02754247 -19.87988281 70.87817383 C-16.37681526 57.03255104 -13.25896836 43.0956881 -10.11444092 29.16508484 C-9.38292927 25.9269177 -8.6487865 22.68934931 -7.91448975 19.45181274 C-7.37719513 17.076915 -6.84418092 14.70108204 -6.3112793 12.32519531 C-5.98124077 10.86787408 -5.65100934 9.41059652 -5.32055664 7.95336914 C-5.16978165 7.27550354 -5.01900665 6.59763794 -4.86366272 5.89923096 C-3.5518211 0.15024077 -3.5518211 0.15024077 0 0 Z " fill="#54A9FD" transform="translate(124.683837890625,138.886474609375)"/>
<path d="M0 0 C0.33 0 0.66 0 1 0 C1 13.53 1 27.06 1 41 C-12.53 41 -26.06 41 -40 41 C-36.76284016 39.38142008 -33.61375469 38.05715856 -30.25 36.75 C-24.78388069 34.47853851 -20.44415797 31.88380762 -16 28 C-15.40703125 27.52304687 -14.8140625 27.04609375 -14.203125 26.5546875 C-6.56114327 19.82568589 -2.52693015 9.66396702 0 0 Z " fill="#000000" transform="translate(511,471)"/>
<path d="M0 0 C1.61857992 3.23715984 2.94284144 6.38624531 4.25 9.75 C6.52146149 15.21611931 9.11619238 19.55584203 13 24 C13.71542969 24.88945312 13.71542969 24.88945312 14.4453125 25.796875 C21.17431411 33.43885673 31.33603298 37.47306985 41 40 C41 40.33 41 40.66 41 41 C27.47 41 13.94 41 0 41 C0 27.47 0 13.94 0 0 Z " fill="#000000" transform="translate(0,471)"/>
<path d="M0 0 C13.53 0 27.06 0 41 0 C41 13.53 41 27.06 41 41 C39.38142008 37.76284016 38.05715856 34.61375469 36.75 31.25 C34.47853851 25.78388069 31.88380762 21.44415797 28 17 C27.52304687 16.40703125 27.04609375 15.8140625 26.5546875 15.203125 C19.82568589 7.56114327 9.66396702 3.52693015 0 1 C0 0.67 0 0.34 0 0 Z " fill="#000000" transform="translate(471,0)"/>
<path d="M0 0 C13.53 0 27.06 0 41 0 C37.76284016 1.61857992 34.61375469 2.94284144 31.25 4.25 C25.78388069 6.52146149 21.44415797 9.11619238 17 13 C16.40703125 13.47695312 15.8140625 13.95390625 15.203125 14.4453125 C7.56114327 21.17431411 3.52693015 31.33603298 1 41 C0.67 41 0.34 41 0 41 C0 27.47 0 13.94 0 0 Z " fill="#000000" transform="translate(0,0)"/>
</svg>
