<?xml version="1.0" encoding="UTF-8"?>
<svg version="1.1" xmlns="http://www.w3.org/2000/svg" width="512" height="512">
<path d="M0 0 C19.62613633 12.43704851 37.26743729 27.20082812 54.20158386 43.05451965 C55.06322726 43.85774233 55.92487065 44.66096501 56.81262445 45.48852777 C112.64156521 97.87199059 130.81616537 151.67296919 133.41365663 225.80583422 C135.27918787 284.45655862 131.59704214 343.54410717 125.8971405 401.90559387 C125.72177474 403.73249488 125.72177474 403.73249488 125.54286623 405.59630299 C122.45039031 437.21048947 122.45039031 437.21048947 115.13908386 450.92951965 C114.79579041 451.59451477 114.45249695 452.25950989 114.09880066 452.94465637 C111.26423055 458.28775909 107.92906018 462.99606365 103.95158386 467.55451965 C103.17943542 468.52260559 102.40728699 469.49069153 101.61174011 470.4881134 C93.77509053 479.87621078 82.39168344 486.53850038 70.95158386 490.55451965 C70.00953094 490.88787071 69.06747803 491.22122177 68.09687805 491.56467438 C56.09700399 495.27903233 44.37757085 495.11970137 31.90470886 495.07209778 C29.50321531 495.07752712 27.10172508 495.08465431 24.70024109 495.09333801 C18.887866 495.10959988 13.07572377 495.1073364 7.2633419 495.09568745 C2.53412054 495.08660655 -2.19504303 495.08544909 -6.92427063 495.08978271 C-7.6006463 495.09039565 -8.27702198 495.09100858 -8.97389388 495.09164008 C-10.34848692 495.09291915 -11.72307994 495.09421601 -13.09767294 495.09553045 C-25.9485971 495.10690175 -38.7994066 495.093877 -51.65031195 495.07232898 C-62.64635194 495.05446112 -73.64222294 495.0575662 -84.63825989 495.07600403 C-97.44721374 495.09747204 -110.25606744 495.10580344 -123.06503677 495.09355497 C-124.43421172 495.09228095 -125.80338667 495.09102346 -127.17256165 495.08978271 C-127.84599727 495.08916561 -128.5194329 495.08854851 -129.21327567 495.08791271 C-133.9297909 495.08447753 -138.64624191 495.09024829 -143.36274719 495.09970093 C-149.72576394 495.11131501 -156.08846377 495.10313227 -162.45144653 495.0801239 C-164.77691117 495.07486645 -167.1024028 495.0762993 -169.42785645 495.08517456 C-185.15795057 495.1396426 -199.25124719 494.29481812 -213.42341614 486.74201965 C-214.08841125 486.3987262 -214.75340637 486.05543274 -215.43855286 485.70173645 C-220.78165557 482.86716634 -225.48996014 479.53199597 -230.04841614 475.55451965 C-231.01650208 474.78237122 -231.98458801 474.01022278 -232.98200989 473.2146759 C-247.11422725 461.41790486 -255.6737757 441.75957536 -257.42066288 423.70785141 C-257.55903636 419.63370655 -257.58303336 415.57684694 -257.55635071 411.501297 C-257.56097183 409.93986114 -257.56733281 408.37842964 -257.57525969 406.81700706 C-257.59181003 402.56994055 -257.58377257 398.32323798 -257.57131481 394.07617092 C-257.56220745 389.4789438 -257.57626205 384.88177618 -257.5872345 380.28456116 C-257.60496399 371.29584067 -257.60120465 362.30725426 -257.58958393 353.31852865 C-257.58052788 346.00922139 -257.57933498 338.69995153 -257.5836792 331.39064026 C-257.58429213 330.3479169 -257.58490506 329.30519355 -257.58553657 328.23087251 C-257.58681555 326.11219548 -257.5881124 323.99351846 -257.58942693 321.87484145 C-257.60081642 302.03649674 -257.58774467 282.19822612 -257.56622547 262.35989356 C-257.54835599 245.36027872 -257.55146055 228.36077315 -257.56990051 211.36116028 C-257.59133609 191.59083827 -257.59971793 171.82058111 -257.58745146 152.0502491 C-257.58617734 149.93963243 -257.58491986 147.82901574 -257.5836792 145.71839905 C-257.5830621 144.68010086 -257.582445 143.64180268 -257.58180919 142.57204092 C-257.57836435 135.27669483 -257.58416592 127.98139009 -257.59359741 120.68605042 C-257.60484867 111.78803501 -257.60171183 102.89016065 -257.58047444 93.99216127 C-257.57000598 89.45757319 -257.56576992 84.92321975 -257.57907104 80.38863373 C-257.59108861 76.22853332 -257.58428023 72.06888256 -257.56316084 67.9088223 C-257.55873406 66.41305583 -257.56087136 64.91725047 -257.57066399 63.4215095 C-257.65011344 50.26544956 -255.48678665 37.9087341 -249.23591614 26.17951965 C-248.89262268 25.51452454 -248.54932922 24.84952942 -248.19563293 24.16438293 C-245.36106282 18.82128022 -242.02589245 14.11297566 -238.04841614 9.55451965 C-236.89019348 8.10239075 -236.89019348 8.10239075 -235.70857239 6.6209259 C-188.32360375 -50.14500387 -54.13476379 -33.31062351 0 0 Z " fill="#1E88E5" transform="translate(323.0484161376953,17.445480346679688)"/>
<path d="M0 0 C13.63447845 4.98212374 27.75772583 5.95363851 42.13818359 5.83569336 C43.31024353 5.83162979 43.31024353 5.83162979 44.50598145 5.82748413 C60.3364212 5.74457584 74.73807717 3.70326731 89.76318359 -1.35180664 C101.77089311 -5.38899818 113.81069263 -4.829359 125.38818359 0.39819336 C138.65980826 8.46095481 144.55458171 20.65958003 148.88818359 35.08569336 C149.48758995 37.02606156 150.08785315 38.96616528 150.68896484 40.90600586 C151.12136475 42.31221191 151.12136475 42.31221191 151.5625 43.74682617 C152.68060695 47.33719918 153.87208579 50.89804386 155.07568359 54.46069336 C156.95137021 60.03871566 158.71735033 65.64025141 160.40771484 71.27709961 C161.06325159 73.36384806 161.76970588 75.43525222 162.52490234 77.48803711 C165.61086892 85.90135651 167.21277164 93.58219952 163.76318359 102.14819336 C160.17912644 109.11719337 155.83935658 113.94400312 148.71591187 117.35627365 C141.24887398 119.69422113 133.25232895 119.08900661 125.50146484 119.04516602 C123.48667614 119.05194885 121.47189365 119.06085571 119.4571228 119.07171631 C114.00664837 119.0944368 108.55664917 119.08570314 103.10616684 119.06982088 C97.39067087 119.05712434 91.67521443 119.06891241 85.9597168 119.07675171 C76.36320727 119.08583732 66.76689041 119.07388883 57.17041016 119.05004883 C46.09010915 119.02283979 35.01026823 119.03165471 23.92997837 119.05918086 C14.40099696 119.08190184 4.87215371 119.08505735 -4.65684605 119.07198751 C-10.34124348 119.06420948 -16.02542496 119.06310612 -21.70980835 119.07966995 C-27.05508233 119.09415886 -32.39976559 119.08401195 -37.74497604 119.05519867 C-39.70164384 119.0486115 -41.65836172 119.05044476 -43.61500931 119.06151199 C-64.33337065 119.16785731 -64.33337065 119.16785731 -72.72724915 111.45418739 C-78.06776187 105.97759694 -80.60946291 100.23561965 -81.23681641 92.64819336 C-81.04086581 85.20207082 -78.04644211 78.42867742 -75.48291016 71.53100586 C-73.78408049 66.95229617 -72.3253406 62.34339997 -70.98681641 57.64819336 C-70.78797852 56.95717529 -70.58914062 56.26615723 -70.38427734 55.55419922 C-69.98899768 54.18026276 -69.59429612 52.80615983 -69.20019531 51.43188477 C-67.45055718 45.38438037 -65.58127126 39.37756843 -63.61181641 33.39819336 C-63.38381348 32.70242188 -63.15581055 32.00665039 -62.92089844 31.28979492 C-60.05079057 22.68144119 -57.06250647 15.01938624 -50.61181641 8.39819336 C-50.06783203 7.83874023 -49.52384766 7.27928711 -48.96337891 6.70288086 C-35.27282009 -6.08782902 -16.70132312 -6.24224019 0 0 Z " fill="#8FC9F8" transform="translate(213.61181640625,342.601806640625)"/>
<path d="M0 0 C1.47533203 0.08701172 1.47533203 0.08701172 2.98046875 0.17578125 C14.85113841 1.50542441 27.14460551 8.07471259 36 16 C36.72316406 16.62003906 37.44632812 17.24007812 38.19140625 17.87890625 C49.37890632 28.15777687 57.34726455 43.8409047 58.16796875 59.12890625 C58.28332358 79.4082859 52.74785048 95.97039504 39 111 C25.1151272 124.48498846 8.05182138 129.31766707 -10.80249023 129.38500977 C-26.17319973 129.13870563 -40.80422028 122.55067923 -52.0625 112.06640625 C-64.92787733 98.34506631 -72.75109312 80.95907598 -72.47021484 61.98828125 C-71.68242424 44.66531357 -64.17385498 30.02917419 -52 18 C-51.31292969 17.29101562 -50.62585938 16.58203125 -49.91796875 15.8515625 C-36.33549508 2.69747854 -18.43596846 -1.14818605 0 0 Z " fill="#E2F1FC" transform="translate(263,196)"/>
<path d="M0 0 C4.71849263 3.9433046 9.19243247 8.04530807 13.53636169 12.3959198 C14.46413244 13.31923386 14.46413244 13.31923386 15.41064602 14.26120073 C17.46419458 16.30613869 19.51421214 18.3545782 21.56420898 20.40307617 C23.04286457 21.87709862 24.52171595 23.35092468 26.00074768 24.8245697 C30.00273747 28.81349198 34.00143378 32.80569937 37.99912143 36.79893279 C40.49611293 39.2929879 42.9936879 41.78645728 45.49144173 44.27974892 C53.30519354 52.07984842 61.11695709 59.88193097 68.92581981 67.68692511 C77.9441634 76.700776 86.96902966 85.70802886 95.99956268 94.70966738 C102.9815697 101.67010604 109.95784815 108.63625198 116.92974907 115.60681325 C121.09442553 119.77043934 125.26152047 123.93157589 129.43456841 128.08681297 C133.35223331 131.98807828 137.26277398 135.89634267 141.16783714 139.81022072 C142.6052282 141.24838619 144.04520942 142.68396802 145.48789597 144.11682129 C147.44974267 146.06607243 149.40222319 148.02423795 151.3525238 149.98503113 C151.93139121 150.55584213 152.51025862 151.12665313 153.10666746 151.71476144 C157 155.65760542 157 155.65760542 157 159 C141.13552361 159.07022877 125.27108951 159.12305587 109.40649605 159.15543652 C102.03949904 159.17087421 94.67259889 159.1919041 87.30566406 159.22631836 C80.88108816 159.25631601 74.45658243 159.27559749 68.03193843 159.28226548 C64.63333687 159.28616029 61.23493601 159.29524806 57.83639908 159.31719017 C54.03290276 159.33904685 50.2298188 159.34196339 46.42626953 159.34057617 C45.31208145 159.351362 44.19789337 159.36214783 43.04994202 159.3732605 C31.13276267 159.32639586 20.69111933 156.1169252 11.76953125 147.9609375 C1.65927094 137.2247136 -0.1582824 127.12642636 -0.11352539 112.84423828 C-0.11367142 111.6241658 -0.11381744 110.40409332 -0.1139679 109.14704895 C-0.11339205 105.81484138 -0.1083888 102.48269633 -0.10139394 99.15049982 C-0.09512786 95.66315045 -0.09455403 92.17580018 -0.09336853 88.68844604 C-0.0902648 82.09064317 -0.08206435 75.49285693 -0.07201904 68.89506137 C-0.06082813 61.38116182 -0.05533995 53.86726146 -0.05032361 46.35335565 C-0.03988091 30.90222747 -0.02230006 15.45111589 0 0 Z " fill="#63B4F5" transform="translate(288,0)"/>
</svg>
