<?xml version="1.0" encoding="UTF-8"?>
<svg version="1.1" xmlns="http://www.w3.org/2000/svg" width="128" height="128">
<path d="M0 0 C9.57252535 4.35887784 17.89959405 6.60631154 28.359375 4.0078125 C32.00273387 3.33883418 35.42215507 3.42909446 39.125 3.5 C45.20939754 14.71810797 51.00715306 26.08268453 56.65087891 37.52810669 C57.38107034 39.00420198 58.11607045 40.47792867 58.85595703 41.94918823 C59.90983998 44.04821326 60.94515089 46.15548541 61.9765625 48.265625 C62.29485016 48.89112747 62.61313782 49.51662994 62.94107056 50.16108704 C64.99137872 54.42291407 65.55734872 57.79575527 65.125 62.5 C62.16722875 66.07397359 57.55758076 66.89160656 53.125 67.5 C39.57223502 68.53303214 29.56152049 65.34820851 17.5 59.55078125 C7.91419096 55.3096914 -3.79849329 56.7413335 -13.33203125 60.34375 C-16.4922494 61.7806541 -19.13754259 63.37086646 -21.875 65.5 C-19.32938973 72.1072871 -16.5222428 78.49685449 -13.36328125 84.83203125 C-12.51486738 86.55398395 -11.66656322 88.27599071 -10.81835938 89.99804688 C-9.497042 92.66953996 -8.17381403 95.34006406 -6.84838867 98.00952148 C-5.55667215 100.61458216 -4.27211893 103.22308086 -2.98828125 105.83203125 C-2.59038895 106.62793167 -2.19249664 107.42383209 -1.782547 108.24385071 C1.77809571 115.49440553 1.77809571 115.49440553 2.125 119.5 C1.795 120.16 1.465 120.82 1.125 121.5 C-1.125 121.875 -1.125 121.875 -3.875 121.5 C-7.68795972 116.61015835 -10.13480396 111.03047088 -12.75 105.4375 C-13.72590777 103.37338823 -14.70250356 101.30960166 -15.6796875 99.24609375 C-16.4545752 97.60616455 -16.4545752 97.60616455 -17.24511719 95.93310547 C-19.79632184 90.55937272 -22.38782453 85.20524016 -24.97930908 79.8508606 C-29.46681067 70.57786285 -33.93715649 61.29688651 -38.375 52 C-42.68679598 42.96873258 -47.02518059 33.95049714 -51.375 24.9375 C-51.83072388 23.99269775 -51.83072388 23.99269775 -52.2956543 23.02880859 C-53.16536357 21.22600085 -54.0357948 19.42354145 -54.90625 17.62109375 C-55.40705078 16.5839624 -55.90785156 15.54683105 -56.42382812 14.47827148 C-56.90271484 13.49544189 -57.38160156 12.5126123 -57.875 11.5 C-58.38998047 10.40437744 -58.90496094 9.30875488 -59.43554688 8.17993164 C-60.597864 5.39842544 -60.597864 5.39842544 -62.875 4.5 C-63.0625 1.125 -63.0625 1.125 -62.875 -2.5 C-59.875 -4.5 -59.875 -4.5 -57.375 -4.5625 C-54.875 -3.5 -54.875 -3.5 -53.0625 0.0625 C-52.670625 1.196875 -52.27875 2.33125 -51.875 3.5 C-50.68003906 2.88511719 -50.68003906 2.88511719 -49.4609375 2.2578125 C-48.40132812 1.71898437 -47.34171875 1.18015625 -46.25 0.625 C-45.20585938 0.09132813 -44.16171875 -0.44234375 -43.0859375 -0.9921875 C-28.55581983 -7.81533278 -14.20972087 -6.53366573 0 0 Z M-13.875 2.5 C-13.25164397 4.51391949 -12.57471973 6.51132287 -11.875 8.5 C-11.5346875 9.5003125 -11.194375 10.500625 -10.84375 11.53125 C-8.03448601 15.76744173 -4.96899526 16.22963772 -0.1875 17.375 C1.00842773 17.69210938 1.00842773 17.69210938 2.22851562 18.015625 C4.18844697 18.5320141 6.1560971 19.01894913 8.125 19.5 C7.55346693 15.49926848 6.6958511 12.65513544 4.125 9.5 C1.36614453 7.91051463 -1.52236811 6.80042677 -4.5 5.6875 C-5.28890625 5.37619141 -6.0778125 5.06488281 -6.890625 4.74414062 C-10.28855914 3.18399537 -10.28855914 3.18399537 -13.875 2.5 Z M-35.875 3.5 C-37.48040659 4.28914921 -39.08428016 5.08141765 -40.6875 5.875 C-42.02748047 6.53628906 -42.02748047 6.53628906 -43.39453125 7.2109375 C-46.02056381 8.51866905 -46.02056381 8.51866905 -48.875 10.5 C-48.44356647 11.87691552 -48.00448836 13.25143619 -47.5625 14.625 C-47.31886719 15.39070313 -47.07523438 16.15640625 -46.82421875 16.9453125 C-45.73031153 19.88940847 -44.27958778 22.69082445 -42.875 25.5 C-38.255 22.86 -33.635 20.22 -28.875 17.5 C-29.65875 15.56125 -30.4425 13.6225 -31.25 11.625 C-31.69085937 10.53445312 -32.13171875 9.44390625 -32.5859375 8.3203125 C-33.70551338 5.43670638 -33.70551338 5.43670638 -35.875 3.5 Z M28.5625 11.375 C27.75683594 11.53742187 26.95117188 11.69984375 26.12109375 11.8671875 C25.13302734 12.18042969 25.13302734 12.18042969 24.125 12.5 C23.795 13.16 23.465 13.82 23.125 14.5 C24.34832906 17.21126665 24.34832906 17.21126665 26.0625 20.125 C26.62839844 21.12789062 27.19429688 22.13078125 27.77734375 23.1640625 C28.22207031 23.93492188 28.66679688 24.70578125 29.125 25.5 C30.56239513 25.52712066 31.99993863 25.54645067 33.4375 25.5625 C34.23800781 25.57410156 35.03851563 25.58570313 35.86328125 25.59765625 C38.29361334 25.59657855 38.29361334 25.59657855 41.125 24.5 C39.63329734 19.5276578 37.52042583 15.08154261 35.125 10.5 C32.82722596 10.5 30.81228202 10.90554308 28.5625 11.375 Z M-25.875 18.5 C-25.468727 19.85732116 -25.0492721 21.21069689 -24.625 22.5625 C-24.39296875 23.31660156 -24.1609375 24.07070313 -23.921875 24.84765625 C-22.58891196 28.22482753 -20.67633806 31.3476584 -18.875 34.5 C-10.46 33.51 -10.46 33.51 -1.875 32.5 C-3.25722624 28.35332129 -4.54064202 24.94059185 -6.5 21.125 C-6.94601563 20.25101563 -7.39203125 19.37703125 -7.8515625 18.4765625 C-8.18929687 17.82429688 -8.52703125 17.17203125 -8.875 16.5 C-10.77051022 16.44558344 -12.6664792 16.40701965 -14.5625 16.375 C-15.61824219 16.35179688 -16.67398438 16.32859375 -17.76171875 16.3046875 C-20.89751859 16.50141271 -23.05145373 17.16942346 -25.875 18.5 Z M13.125 23.5 C14.03376261 26.53609325 15.04348554 29.52109174 16.125 32.5 C16.35703125 33.16515625 16.5890625 33.8303125 16.828125 34.515625 C18.26380478 37.75294216 19.49119657 39.17343665 22.6875 40.8203125 C27.03440039 42.47352196 30.44227094 43.5 35.125 43.5 C34.21624444 40.46393029 33.18958729 37.4846465 32.125 34.5 C31.939375 33.83484375 31.75375 33.1696875 31.5625 32.484375 C30.68072604 30.1797385 30.03131724 29.11368083 28.125 27.5 C23.20280177 25.69162717 18.2602353 24.52832448 13.125 23.5 Z M1.125 34.5 C3.68279277 43.88529134 3.68279277 43.88529134 10.125 50.60302734 C15.00215436 52.30177577 20.00309663 52.98723352 25.125 53.5 C22.48157738 44.19316928 22.48157738 44.19316928 16.0078125 37.45703125 C10.98225989 35.51404549 6.54009004 34.23781687 1.125 34.5 Z M-32.875 44.5 C-31.38329734 49.4723422 -29.27042583 53.91845739 -26.875 58.5 C-22.13481099 56.66508812 -17.51086749 54.58058541 -12.875 52.5 C-13.47855408 48.64974121 -14.64272603 45.63898841 -16.4375 42.1875 C-17.12005859 40.86298828 -17.12005859 40.86298828 -17.81640625 39.51171875 C-18.16574219 38.84785156 -18.51507813 38.18398438 -18.875 37.5 C-24.57011947 37.5 -28.68059946 40.92242307 -32.875 44.5 Z M43.4375 44.5 C42.62925781 44.685625 41.82101563 44.87125 40.98828125 45.0625 C40.37339844 45.206875 39.75851563 45.35125 39.125 45.5 C40.76458758 50.73272633 42.51452035 55.65196636 45.125 60.5 C49.67305635 60.67835515 53.0044254 60.49785435 57.125 58.5 C55.48541242 53.26727367 53.73547965 48.34803364 51.125 43.5 C48.32715289 43.5 46.1459322 43.87195775 43.4375 44.5 Z " fill="#000000" transform="translate(62.875,5.5)"/>
</svg>
